<?xml version="1.0" encoding="utf-8"?>
<!-- Generator: Adobe Illustrator 23.0.1, SVG Export Plug-In . SVG Version: 6.00 Build 0)  -->
<svg version="1.0" id="Layer_1" xmlns="http://www.w3.org/2000/svg" xmlns:xlink="http://www.w3.org/1999/xlink" x="0px" y="0px"
	 viewBox="0 0 40 40" style="enable-background:new 0 0 40 40;" xml:space="preserve">
<style type="text/css">
	.st0{fill:#346786;}
	.st1{clip-path:url(#SVGID_2_);}
	.st2{fill:#FFEBCC;}
	.st3{fill:#E4B692;}
	.st4{opacity:0.1;fill:#DDAC8C;enable-background:new    ;}
	.st5{fill:#FFFFFF;}
	.st6{fill:#E99A27;}
	.st7{fill:#8C7257;}
</style>
<g id="SVGRepo_bgCarrier">
</g>
<g id="SVGRepo_tracerCarrier">
</g>
<g id="SVGRepo_iconCarrier">
	<g>
		<circle class="st0" cx="20" cy="20" r="19.9"/>
		<g>
			<g>
				<defs>
					<circle id="SVGID_1_" cx="20" cy="20" r="19.9"/>
				</defs>
				<clipPath id="SVGID_2_">
					<use xlink:href="#SVGID_1_"  style="overflow:visible;"/>
				</clipPath>
				<g class="st1">
					<g>
						<path class="st2" d="M29.6,32.3c-1.3-2.4-9.6-4-9.6-4s-8.3,1.5-9.6,4c-1,3.4-1.7,7.7-1.7,7.7H20h11.3
							C31.3,39.9,30.8,35.3,29.6,32.3z"/>
						<path class="st3" d="M20,28.3c0,0,8.3,1.5,9.6,4c1.2,3.1,1.7,7.7,1.7,7.7H20V28.3z"/>
						<rect x="17.7" y="23.4" class="st2" width="4.5" height="7.5"/>
						<rect x="20" y="23.4" class="st3" width="2.3" height="7.5"/>
						<path class="st4" d="M17.7,26.9c0.4,1.2,2,1.8,3.2,1.8c0.4,0,0.9-0.1,1.3-0.2v-5.1h-4.5V26.9z"/>
						<path class="st5" d="M29.6,32.3c-0.8-1.4-3.9-2.5-6.4-3.2c-0.1,1.7-1.5,3-3.2,3c-1.7,0-3.1-1.3-3.2-3
							c-2.5,0.7-5.6,1.8-6.4,3.2c-1,3.4-1.7,7.7-1.7,7.7H20h11.3C31.3,39.9,30.8,35.3,29.6,32.3z"/>
						<path class="st2" d="M25.8,18.6c0-4.7-2.6-7.4-5.8-7.4s-5.8,2.7-5.8,7.4c0,2,0.6,6.3,1.6,7.2c0.7,0.6,3,1.7,4.1,1.7h0
							c0,0,0,0,0,0c0,0,0,0,0,0h0c1.1,0,3.4-1.1,4.1-1.7C25.2,24.7,25.8,20.4,25.8,18.6z"/>
						<path class="st3" d="M20,27.5C20,27.5,20,27.5,20,27.5L20,27.5c1.1,0,3.4-1.1,4.2-1.7c1.1-1.1,1.6-5.4,1.6-7.2
							c0-4.7-2.6-7.4-5.8-7.4L20,27.5L20,27.5z"/>
						<path class="st3" d="M24.9,21.9c-1-0.1-1.8-1.2-1.6-2.5c0.2-1.3,1.2-2.2,2.2-2.1c1,0.1,1.8,1.2,1.6,2.5
							C26.9,21,26,22,24.9,21.9z"/>
						<path class="st2" d="M12.9,19.7c-0.2-1.3,0.5-2.4,1.6-2.5c1-0.1,2,0.8,2.2,2.1c0.2,1.3-0.5,2.4-1.6,2.5
							C14.1,22,13.1,21,12.9,19.7z"/>
						<path class="st6" d="M10.4,32.3c-1,3.4-1.7,7.7-1.7,7.7h8.2c-1.4-6.1-1.4-10.5-1.4-10.5C13.3,30.1,11.1,31.1,10.4,32.3z"/>
						<path class="st6" d="M29.6,32.3c1.3,3.2,1.7,7.7,1.7,7.7h-8.2c1.4-6.1,1.4-10.5,1.4-10.5C26.7,30.1,28.9,31.1,29.6,32.3z"/>
					</g>
					<path class="st7" d="M14.6,21.7c0,0,0.8,2.8,1.8,3.3c0.4,0,0.7,0,0.7,0l0.9-1.3l2-0.6v4.3h-2.6l-2.6-2.3L14.6,21.7z"/>
					<path class="st7" d="M25.4,21.7c0,0-0.8,2.8-1.8,3.3c-0.4,0-0.7,0-0.7,0L22,23.8l-2-0.6v4.3h2.6l2.6-2.3L25.4,21.7z"/>
					<path class="st5" d="M20.9,24.6c0,0-0.1-0.6-0.9-0.6c-0.7,0-0.9,0.6-0.9,0.6H20.9z"/>
					<path class="st7" d="M14.2,17.2c0,0,0.8,0.2,1.3,0.7c-0.1-1-0.3-4.4,0.9-5.2c1.2-0.8,1.8,0,3.6,0c0-1.3,0-2.4,0-2.4
						s-2.1,0-2.9,0c-0.8,0-3.1,0.4-3.1,2.6C14,15.2,14.2,17.2,14.2,17.2z"/>
					<path class="st7" d="M25.8,17.2c0,0-0.8,0.2-1.3,0.7c0.1-1,0.3-4.4-0.9-5.2c-1.2-0.8-1.8,0-3.6,0c0-1.3,0-2.4,0-2.4
						s2.1,0,2.9,0c0.8,0,3.1,0.4,3.1,2.6C26,15.2,25.8,17.2,25.8,17.2z"/>
				</g>
			</g>
		</g>
	</g>
</g>
</svg>
