<?xml version="1.0" encoding="utf-8"?>
<!-- Generator: Adobe Illustrator 23.0.1, SVG Export Plug-In . SVG Version: 6.00 Build 0)  -->
<svg version="1.0" id="Layer_1" xmlns="http://www.w3.org/2000/svg" xmlns:xlink="http://www.w3.org/1999/xlink" x="0px" y="0px"
	 viewBox="0 0 70 70" style="enable-background:new 0 0 70 70;" xml:space="preserve">
<style type="text/css">
	.st0{fill:#346786;}
	.st1{clip-path:url(#SVGID_1_);}
	.st2{fill:#FFEBCC;}
	.st3{fill:#E4B692;}
	.st4{opacity:0.1;fill:#DDAC8C;enable-background:new    ;}
	.st5{fill:#FFFFFF;}
	.st6{fill:#E99A27;}
	.st7{fill:#8C7257;}
</style>
<g id="SVGRepo_iconCarrier">
	<g>
		<circle class="st0" cx="35" cy="35" r="35"/>
		<g>
			<g>
				<g>
					<defs>
						<circle id="SVGID_3_" cx="35" cy="35" r="35"/>
					</defs>
					<clipPath id="SVGID_1_">
						<use xlink:href="#SVGID_3_"  style="overflow:visible;"/>
					</clipPath>
					<g class="st1">
						<g>
							<path class="st2" d="M51.9,56.6c-2.3-4.2-16.9-7-16.9-7s-14.6,2.6-16.9,7c-1.8,6-3,13.5-3,13.5H35h19.9
								C54.9,70,54,61.9,51.9,56.6z"/>
							<path class="st3" d="M35,49.6c0,0,14.6,2.6,16.9,7c2.1,5.5,3,13.5,3,13.5H35V49.6z"/>
							<rect x="31" y="41" class="st2" width="7.9" height="13.2"/>
							<rect x="35" y="41" class="st3" width="4" height="13.2"/>
							<path class="st4" d="M31,47.1c0.7,2.1,3.5,3.2,5.6,3.2c0.7,0,1.6-0.2,2.3-0.4v-9H31V47.1z"/>
							<path class="st5" d="M51.9,56.6c-1.4-2.5-6.9-4.4-11.3-5.6c-0.2,3-2.6,5.3-5.6,5.3S29.5,54,29.4,51
								c-4.4,1.2-9.8,3.2-11.3,5.6c-1.8,6-3,13.5-3,13.5H35h19.9C54.9,70,54,61.9,51.9,56.6z"/>
							<path class="st2" d="M45.2,32.5c0-8.3-4.6-13-10.2-13s-10.2,4.7-10.2,13c0,3.5,1.1,11.1,2.8,12.7c1.2,1.1,5.3,3,7.2,3l0,0
								l0,0l0,0l0,0c1.9,0,6-1.9,7.2-3C44.1,43.3,45.2,35.7,45.2,32.5z"/>
							<path class="st3" d="M35,48.2L35,48.2L35,48.2c1.9,0,6-1.9,7.4-3c1.9-1.9,2.8-9.5,2.8-12.7c0-8.3-4.6-13-10.2-13V48.2
								L35,48.2z"/>
							<path class="st3" d="M43.6,38.3c-1.8-0.2-3.2-2.1-2.8-4.4c0.4-2.3,2.1-3.9,3.9-3.7c1.8,0.2,3.2,2.1,2.8,4.4
								C47.1,36.8,45.6,38.5,43.6,38.3z"/>
							<path class="st2" d="M22.5,34.5c-0.4-2.3,0.9-4.2,2.8-4.4c1.8-0.2,3.5,1.4,3.9,3.7c0.4,2.3-0.9,4.2-2.8,4.4
								C24.6,38.5,22.9,36.8,22.5,34.5z"/>
							<path class="st6" d="M18.1,56.6c-1.8,6-3,13.5-3,13.5h14.4c-2.5-10.7-2.5-18.5-2.5-18.5C23.2,52.8,19.3,54.5,18.1,56.6z"/>
							<path class="st6" d="M51.9,56.6c2.3,5.6,3,13.5,3,13.5H40.5c2.5-10.7,2.5-18.5,2.5-18.5C46.8,52.8,50.7,54.5,51.9,56.6z"/>
						</g>
						<path class="st7" d="M25.5,38c0,0,1.4,4.9,3.2,5.8c0.7,0,1.2,0,1.2,0l1.6-2.3l3.5-1.1V48h-4.6l-4.6-4L25.5,38z"/>
						<path class="st7" d="M44.5,38c0,0-1.4,4.9-3.2,5.8c-0.7,0-1.2,0-1.2,0l-1.6-2.1L35,40.6v7.6h4.6l4.6-4L44.5,38z"/>
						<path class="st5" d="M36.6,43.1c0,0-0.2-1.1-1.6-1.1c-1.2,0-1.6,1.1-1.6,1.1H36.6z"/>
						<path class="st7" d="M24.8,30.1c0,0,1.4,0.4,2.3,1.2c-0.2-1.8-0.5-7.7,1.6-9.1s3.2,0,6.3,0c0-2.3,0-4.2,0-4.2s-3.7,0-5.1,0
							s-5.5,0.7-5.5,4.6C24.4,26.6,24.8,30.1,24.8,30.1z"/>
						<path class="st7" d="M45.2,30.1c0,0-1.4,0.4-2.3,1.2c0.2-1.8,0.5-7.7-1.6-9.1c-2.1-1.4-3.2,0-6.3,0c0-2.3,0-4.2,0-4.2
							s3.7,0,5.1,0c1.4,0,5.5,0.7,5.5,4.6C45.6,26.6,45.2,30.1,45.2,30.1z"/>
					</g>
				</g>
			</g>
		</g>
	</g>
</g>
</svg>
