<?xml version="1.0" encoding="utf-8"?>
<!-- Generator: Adobe Illustrator 23.0.1, SVG Export Plug-In . SVG Version: 6.00 Build 0)  -->
<svg version="1.0" id="Layer_1" xmlns="http://www.w3.org/2000/svg" xmlns:xlink="http://www.w3.org/1999/xlink" x="0px" y="0px"
	 viewBox="0 0 40 40" style="enable-background:new 0 0 40 40;" xml:space="preserve">
<style type="text/css">
	.st0{fill:#346786;}
	.st1{display:none;}
	.st2{display:inline;fill:none;stroke:#FF9933;stroke-width:2;stroke-linecap:round;stroke-linejoin:round;}
	.st3{fill:none;stroke:#FF9933;stroke-width:2;stroke-linecap:round;stroke-linejoin:round;}
</style>
<g id="SVGRepo_bgCarrier">
</g>
<g id="SVGRepo_tracerCarrier">
</g>
<g id="SVGRepo_iconCarrier">
	<g>
		<circle class="st0" cx="20" cy="20" r="19.9"/>
	</g>
</g>
<g class="st1">
	<path class="st2" d="M25.7,16.2c0-3.1-2.6-5.7-5.7-5.7s-5.7,2.6-5.7,5.7c0,6.7-2.9,8.6-2.9,8.6h17.1C28.6,24.8,25.7,22.9,25.7,16.2
		"/>
	<path class="st2" d="M21.6,28.6c-0.5,0.9-1.7,1.2-2.6,0.7c-0.3-0.2-0.5-0.4-0.7-0.7"/>
</g>
<g>
	<path class="st3" d="M21.7,28.6c-0.5,0.9-1.7,1.2-2.6,0.7c-0.3-0.2-0.5-0.4-0.7-0.7"/>
	<path class="st3" d="M26.3,21c-0.4-1.6-0.6-3.2-0.6-4.8"/>
	<path class="st3" d="M14.5,14.5c-0.2,0.5-0.2,1.1-0.2,1.7c0,6.7-2.9,8.6-2.9,8.6h13.4"/>
	<path class="st3" d="M25.7,16.2c0-3.2-2.6-5.7-5.7-5.7c-1.1,0-2.2,0.3-3.2,1"/>
	<line class="st3" x1="9.5" y1="9.5" x2="30.5" y2="30.5"/>
</g>
</svg>
