<?xml version="1.0" encoding="utf-8"?>
<!-- Generator: Adobe Illustrator 23.0.1, SVG Export Plug-In . SVG Version: 6.00 Build 0)  -->
<svg version="1.0" id="Layer_1" xmlns="http://www.w3.org/2000/svg" xmlns:xlink="http://www.w3.org/1999/xlink" x="0px" y="0px"
	 viewBox="0 0 40 40" style="enable-background:new 0 0 40 40;" xml:space="preserve">
<style type="text/css">
	.st0{fill:#336699;}
	.st1{fill:#FF9933;}
</style>
<title>Asset 1</title>
<g>
	<g id="Layer_1-2">
		<path class="st0" d="M20,0C9,0,0,9,0,20s9,20,20,20h20V0H20z"/>
		<path class="st1" d="M17.6,10.5c3.9,0,7.1,3.1,7.1,7c0,1.7-0.6,3.3-1.7,4.6l0.3,0.3h0.9l5.4,5.4l-1.6,1.6l-5.4-5.4v-0.9l-0.3-0.3
			c-3,2.5-7.4,2.2-10-0.8s-2.2-7.4,0.8-10C14.2,11.1,15.9,10.5,17.6,10.5 M17.6,12.7c-2.7,0-4.9,2.2-4.9,4.9s2.2,4.9,4.9,4.9
			s4.9-2.2,4.9-4.9l0,0C22.5,14.9,20.3,12.7,17.6,12.7C17.6,12.7,17.6,12.7,17.6,12.7z"/>
	</g>
</g>
</svg>
